<svg viewBox="0 0 32 32" fill="none" xmlns="http://www.w3.org/2000/svg">
<g clip-path="url(#clip0_240_11)">
<path d="M7.53781 7.58684C7.92833 7.19632 8.5615 7.19632 8.95202 7.58684L16.0404 14.6752L23.1294 7.58615C23.5199 7.1958 24.1531 7.19568 24.5436 7.58615C24.934 7.97662 24.9339 8.60984 24.5436 9.00036L17.4546 16.0894L24.4117 23.0465C24.802 23.4371 24.8022 24.0703 24.4117 24.4607C24.0212 24.8509 23.3879 24.851 22.9975 24.4607L16.0404 17.5036L8.95202 24.5919C8.56151 24.9824 7.92834 24.9824 7.53781 24.5919C7.14728 24.2014 7.14728 23.5682 7.53781 23.1777L14.6261 16.0894L7.53781 9.00105C7.14737 8.61062 7.14754 7.97739 7.53781 7.58684Z" fill="currentColor"/>
</g>
</svg>
