<svg viewBox="0 0 32 32" fill="none" xmlns="http://www.w3.org/2000/svg">
<path d="M19.9561 6.31802C21.7134 4.56066 24.563 4.56066 26.3203 6.31802C28.0773 8.07531 28.0773 10.924 26.3203 12.6813L12.9248 26.0768L12.6562 26.1442L6.86523 27.5915C5.76679 27.8661 4.77157 26.8715 5.0459 25.7731L6.49316 19.9821L6.56152 19.7126L19.9561 6.31802ZM8.36719 20.735L7.18848 25.4499L11.9023 24.2711L22.0771 14.0954L18.542 10.5602L8.36719 20.735ZM24.9062 7.73208C23.9299 6.75577 22.3464 6.75577 21.3701 7.73208L19.9561 9.14614L23.4912 12.6813L24.9062 11.2672C25.8822 10.291 25.8822 8.70833 24.9062 7.73208Z" fill="currentColor"/>
</svg>
